<svg id="Layer_1" data-name="Layer 1" xmlns="http://www.w3.org/2000/svg" xmlns:xlink="http://www.w3.org/1999/xlink" viewBox="0 0 130 129"><defs><style>.cls-1,.cls-2,.cls-3{fill:none;}.cls-1{clip-rule:evenodd;}.cls-3,.cls-4{fill-rule:evenodd;}.cls-11,.cls-4,.cls-7{fill:#4a90e2;}.cls-5{clip-path:url(#clip-path);}.cls-6{clip-path:url(#clip-path-2);}.cls-8{clip-path:url(#clip-path-3);}.cls-9{clip-path:url(#clip-path-5);}.cls-10{clip-path:url(#clip-path-7);}.cls-11{font-size:25.44px;font-family:Montserrat;font-weight:700;}</style><clipPath id="clip-path" transform="translate(-631 2127)"><path class="cls-1" d="M647.19-2003h-6.87a4.25,4.25,0,0,1-4.32-4.36q0-6.91,0-13.83c0-1.19.47-1.8,1.4-1.81s1.44,0.62,1.44,1.78q0,6.55,0,13.1c0,2,.27,2.27,2.31,2.27h12.74c0.21,0,.42,0,0.63,0a1.42,1.42,0,0,1,1.48,1.48,1.36,1.36,0,0,1-1.49,1.36c-2.44,0-4.88,0-7.32,0h0Z"/></clipPath><clipPath id="clip-path-2" transform="translate(-631 2127)"><rect class="cls-2" x="-624" y="-2909" width="1920" height="5523"/></clipPath><clipPath id="clip-path-3" transform="translate(-631 2127)"><path class="cls-1" d="M744.77-2122h6.87a4.24,4.24,0,0,1,4.36,4.32c0,4.67,0,9.34,0,14a1.44,1.44,0,0,1-1.47,1.67,1.46,1.46,0,0,1-1.37-1.68q0-6.78,0-13.55c0-1.51-.42-1.93-1.92-1.93H737.5a1.4,1.4,0,0,1-1.5-1.45,1.37,1.37,0,0,1,1.54-1.39h7.23"/></clipPath><clipPath id="clip-path-5" transform="translate(-631 2127)"><path class="cls-1" d="M636-2110.77c0-2.29,0-4.58,0-6.87a4.24,4.24,0,0,1,4.32-4.36c4.67,0,9.34,0,14,0a1.44,1.44,0,0,1,1.67,1.47,1.46,1.46,0,0,1-1.68,1.37H640.77c-1.51,0-1.93.42-1.93,1.92q0,6.55,0,13.1c0,0.21,0,.42,0,0.63a1.4,1.4,0,0,1-1.45,1.5,1.37,1.37,0,0,1-1.39-1.54c0-2.41,0-4.82,0-7.23"/></clipPath><clipPath id="clip-path-7" transform="translate(-631 2127)"><path class="cls-1" d="M756-2012c0-3.1,0-6.2,0-9.29,0-1.25-.88-1.94-1.91-1.55a1.54,1.54,0,0,0-.93,1.68c0,4.45,0,8.9,0,13.35a2.6,2.6,0,0,1-.05.47,1.89,1.89,0,0,1-1.84,1.52c-4.54,0-9.09,0-13.63,0a1.41,1.41,0,0,0-1.62,1.42,1.4,1.4,0,0,0,1.61,1.41c4.73,0,9.45,0,14.18,0a3.92,3.92,0,0,0,2.76-1.13l0.36-.35a3.74,3.74,0,0,0,1.08-2.77c0-1.59,0-3.19,0-4.78"/></clipPath></defs><title>ar icon</title><path class="cls-3" d="M690.56-2106.15L671-2094c-2.7,1.67-2.68,4.33,0,6l19.72,11.74a10.39,10.39,0,0,0,9.81-.08l19.52-12.05c2.7-1.67,2.67-4.33,0-6l-19.72-11.82a9.6,9.6,0,0,0-4.82-1.19,9.69,9.69,0,0,0-5,1.27" transform="translate(-631 2127)"/><path class="cls-4" d="M690.56-2106.15L671-2094c-2.7,1.67-2.68,4.33,0,6l19.72,11.74a10.39,10.39,0,0,0,9.81-.08l19.52-12.05c2.7-1.67,2.67-4.33,0-6l-19.72-11.82a9.6,9.6,0,0,0-4.82-1.19,9.69,9.69,0,0,0-5,1.27" transform="translate(-631 2127)"/><path class="cls-3" d="M665-2082.71l0.21,22.46c0,3.14,1.77,7,4.48,8.68l19.69,12c2.71,1.65,5.24.39,5.21-2.65l-0.18-22.54c0-3-1.77-7-4.48-8.68l-19.6-11.93a4.52,4.52,0,0,0-2.32-.74c-1.64,0-2.84,1.26-3,3.45" transform="translate(-631 2127)"/><path class="cls-4" d="M665-2082.71l0.21,22.46c0,3.14,1.77,7,4.48,8.68l19.69,12c2.71,1.65,5.24.39,5.21-2.65l-0.18-22.54c0-3-1.77-7-4.48-8.68l-19.6-11.93a4.52,4.52,0,0,0-2.32-.74c-1.64,0-2.84,1.26-3,3.45" transform="translate(-631 2127)"/><path class="cls-4" d="M720.95-2085.83l-19.4,12.24c-2.68,1.69-4.36,5.78-4.33,8.75l0.18,22.54c0,3,2.57,4.26,5.25,2.57l19.5-12.27c2.68-1.69,4.38-5.62,4.33-8.75l-0.16-22.46c-0.2-2.17-1.4-3.4-3-3.4a4.48,4.48,0,0,0-2.36.77" transform="translate(-631 2127)"/><path class="cls-4" d="M720.95-2085.83l-19.4,12.24c-2.68,1.69-4.36,5.78-4.33,8.75l0.18,22.54c0,3,2.57,4.26,5.25,2.57l19.5-12.27c2.68-1.69,4.38-5.62,4.33-8.75l-0.16-22.46c-0.2-2.17-1.4-3.4-3-3.4a4.48,4.48,0,0,0-2.36.77" transform="translate(-631 2127)"/><g class="cls-5"><g class="cls-6"><rect class="cls-7" y="99" width="30" height="30"/></g></g><g class="cls-8"><g class="cls-6"><rect class="cls-7" x="100" width="30" height="30"/></g></g><g class="cls-9"><g class="cls-6"><rect class="cls-7" width="30" height="30"/></g></g><g class="cls-10"><g class="cls-6"><rect class="cls-7" x="100" y="99" width="30" height="30"/></g></g><text class="cls-11" transform="translate(46.64 112.93)">AR</text></svg>