<svg width="155" height="155" viewBox="0 0 155 155" fill="none" xmlns="http://www.w3.org/2000/svg">
<rect width="155" height="155" fill="#E5E5E5"/>
<rect width="1920" height="1080" transform="translate(-227 -111)" fill="white"/>
<g filter="url(#filter0_f_0_1)">
<rect x="21" y="16" width="113" height="150" rx="5" fill="#3F3727" fill-opacity="0.28"/>
</g>
<rect width="155" height="155" rx="5" fill="white"/>
<path d="M76.9794 85.8423C76.7296 85.8423 76.4381 85.759 76.1882 85.634L57.7394 75.0146C57.2814 74.723 56.9482 74.2233 56.9482 73.6819V52.318C56.9482 51.7767 57.2397 51.2769 57.7394 50.9854L76.1882 40.3659C76.6463 40.1161 77.2709 40.0744 77.729 40.3659L96.2611 50.9854C96.7608 51.2769 97.0523 51.7767 97.0523 52.318V73.6819C97.0523 74.2233 96.7608 74.7647 96.2611 75.0146L77.729 85.634C77.5208 85.759 77.2293 85.8423 76.9794 85.8423ZM60.0716 72.7657L76.9794 82.5107L93.9706 72.7657V53.1926L76.9794 43.4893L60.0716 53.2342V72.7657Z" fill="black"/>
<path d="M76.9793 64.6033C76.7294 64.6033 76.4379 64.52 76.1881 64.3951L57.7393 53.6923C56.9897 53.2759 56.7398 52.318 57.1979 51.5684C57.6144 50.8188 58.5722 50.569 59.3218 51.0271L77.7706 61.7298C78.5202 62.1463 78.77 63.1041 78.312 63.8537C78.0204 64.3118 77.5207 64.6033 76.9793 64.6033Z" fill="black"/>
<path d="M76.9794 64.6033C76.438 64.6033 75.9383 64.3118 75.6468 63.8121C75.2303 63.0625 75.4802 62.1463 76.2298 61.6882L94.7618 50.9854C95.5114 50.5689 96.4276 50.8188 96.8857 51.5684C97.3022 52.318 97.0523 53.2342 96.3027 53.6923L77.7707 64.3951C77.5208 64.52 77.2293 64.6033 76.9794 64.6033Z" fill="black"/>
<path d="M76.9794 85.8423C76.1465 85.8423 75.4385 85.1343 75.4385 84.3014V63.0625C75.4385 62.1879 76.1465 61.5216 76.9794 61.5216C77.8123 61.5216 78.5203 62.2296 78.5203 63.0625V84.3014C78.5203 85.1343 77.8123 85.8423 76.9794 85.8423Z" fill="black"/>
<path d="M44.0798 84.8428H38.5411C37.7082 84.8428 37.0002 84.1348 37.0002 83.3019V42.6981C37.0002 41.8235 37.7082 41.1572 38.5411 41.1572H44.0798C44.9127 41.1572 45.6207 41.8652 45.6207 42.6981C45.6207 43.5726 44.9127 44.2389 44.0798 44.2389H40.0819V81.7611H44.0798C44.9127 81.7611 45.6207 82.469 45.6207 83.3019C45.6207 84.1348 44.9544 84.8428 44.0798 84.8428Z" fill="black"/>
<path d="M115.459 84.8428H109.921C109.088 84.8428 108.38 84.1348 108.38 83.3019C108.38 82.4274 109.088 81.7611 109.921 81.7611H113.919V44.2389H109.921C109.088 44.2389 108.38 43.531 108.38 42.6981C108.38 41.8235 109.088 41.1572 109.921 41.1572H115.459C116.292 41.1572 117 41.8652 117 42.6981V83.3019C117.042 84.1348 116.334 84.8428 115.459 84.8428Z" fill="black"/>
<path d="M76.9794 36.1598C76.1465 36.1598 75.4385 35.4518 75.4385 34.6189V24.5408C75.4385 23.6663 76.1465 23 76.9794 23C77.8123 23 78.5203 23.7079 78.5203 24.5408V34.6189C78.5203 35.4935 77.8123 36.1598 76.9794 36.1598Z" fill="#E4E4E4"/>
<path d="M67.8175 39.0749C66.9846 39.0749 66.2767 38.367 66.2767 37.5341V31.0791C66.2767 30.2045 66.9846 29.5382 67.8175 29.5382C68.6504 29.5382 69.3584 30.2462 69.3584 31.0791V37.5341C69.3584 38.367 68.6504 39.0749 67.8175 39.0749Z" fill="#E4E4E4"/>
<path d="M58.5307 43.8641C57.6978 43.8641 56.9898 43.1561 56.9898 42.3232V39.7829C56.9898 38.9084 57.6978 38.242 58.5307 38.242C59.3636 38.242 60.0716 38.95 60.0716 39.7829V42.3232C60.0716 43.1978 59.4053 43.8641 58.5307 43.8641Z" fill="#E4E4E4"/>
<path d="M95.5114 43.8641C94.6785 43.8641 93.9706 43.1561 93.9706 42.3232V39.7829C93.9706 38.9084 94.6785 38.242 95.5114 38.242C96.3443 38.242 97.0523 38.95 97.0523 39.7829V42.3232C97.0523 43.1978 96.3443 43.8641 95.5114 43.8641Z" fill="#E4E4E4"/>
<path d="M86.2246 39.0749C85.3917 39.0749 84.6837 38.367 84.6837 37.5341V31.0791C84.6837 30.2045 85.3917 29.5382 86.2246 29.5382C87.0575 29.5382 87.7654 30.2462 87.7654 31.0791V37.5341C87.7654 38.367 87.0991 39.0749 86.2246 39.0749Z" fill="#E4E4E4"/>
<path d="M76.9794 103C76.1465 103 75.4385 102.292 75.4385 101.459V91.4643C75.4385 90.5898 76.1465 89.9235 76.9794 89.9235C77.8123 89.9235 78.5203 90.6314 78.5203 91.4643V101.459C78.5203 102.334 77.8123 103 76.9794 103Z" fill="#E4E4E4"/>
<path d="M67.8175 96.4617C66.9846 96.4617 66.2767 95.7538 66.2767 94.9209V88.4659C66.2767 87.5913 66.9846 86.925 67.8175 86.925C68.6504 86.925 69.3584 87.633 69.3584 88.4659V94.9209C69.3584 95.7954 68.6504 96.4617 67.8175 96.4617Z" fill="#E4E4E4"/>
<path d="M58.5307 87.758C57.6978 87.758 56.9898 87.05 56.9898 86.2171V83.6767C56.9898 82.8022 57.6978 82.1359 58.5307 82.1359C59.3636 82.1359 60.0716 82.8438 60.0716 83.6767V86.2171C60.0716 87.05 59.4053 87.758 58.5307 87.758Z" fill="#E4E4E4"/>
<path d="M95.5114 87.758C94.6785 87.758 93.9706 87.05 93.9706 86.2171V83.6767C93.9706 82.8022 94.6785 82.1359 95.5114 82.1359C96.3443 82.1359 97.0523 82.8438 97.0523 83.6767V86.2171C97.0523 87.05 96.3443 87.758 95.5114 87.758Z" fill="#E4E4E4"/>
<path d="M86.2246 96.4617C85.3917 96.4617 84.6837 95.7538 84.6837 94.9209V88.4659C84.6837 87.5913 85.3917 86.925 86.2246 86.925C87.0575 86.925 87.7654 87.633 87.7654 88.4659V94.9209C87.7654 95.7954 87.0991 96.4617 86.2246 96.4617Z" fill="#E4E4E4"/>
<path d="M34.1803 121.909H31.5787L36.1874 135H39.115L43.73 121.909H41.1221L37.7215 132.213H37.5873L34.1803 121.909ZM45.352 135H47.6659V125.182H45.352V135ZM46.5154 123.788C47.2504 123.788 47.8513 123.226 47.8513 122.536C47.8513 121.839 47.2504 121.276 46.5154 121.276C45.7739 121.276 45.173 121.839 45.173 122.536C45.173 123.226 45.7739 123.788 46.5154 123.788ZM54.392 135.192C56.6803 135.192 58.2528 134.073 58.6618 132.366L56.5013 132.124C56.1881 132.955 55.4211 133.389 54.4239 133.389C52.9282 133.389 51.9374 132.405 51.9182 130.724H58.7577V130.014C58.7577 126.569 56.6867 125.054 54.2705 125.054C51.458 125.054 49.6235 127.119 49.6235 130.148C49.6235 133.229 51.4324 135.192 54.392 135.192ZM51.9246 129.164C51.9949 127.911 52.9218 126.857 54.3025 126.857C55.632 126.857 56.5269 127.828 56.5397 129.164H51.9246ZM62.6888 135H65.105L66.9459 128.365H67.0802L68.9211 135H71.3309L74.1114 125.182H71.7464L70.0461 132.047H69.9502L68.186 125.182H65.8529L64.0887 132.085H63.9992L62.2733 125.182H59.9147L62.6888 135ZM80.1919 135H82.5058V125.182H80.1919V135ZM81.3552 123.788C82.0903 123.788 82.6911 123.226 82.6911 122.536C82.6911 121.839 82.0903 121.276 81.3552 121.276C80.6137 121.276 80.0129 121.839 80.0129 122.536C80.0129 123.226 80.6137 123.788 81.3552 123.788ZM87.1991 129.247C87.1991 127.828 88.0557 127.01 89.2765 127.01C90.4719 127.01 91.1878 127.796 91.1878 129.107V135H93.5017V128.749C93.5081 126.396 92.1657 125.054 90.1395 125.054C88.6693 125.054 87.6594 125.757 87.2119 126.85H87.0969V125.182H84.8852V135H87.1991V129.247ZM102.102 135L103.182 131.772H108.104L109.191 135H111.722L107.107 121.909H104.18L99.5709 135H102.102ZM103.822 129.867L105.592 124.594H105.695L107.465 129.867H103.822ZM113.446 135H115.818V130.206H118.234L120.804 135H123.45L120.618 129.81C122.159 129.19 122.971 127.873 122.971 126.096C122.971 123.597 121.36 121.909 118.356 121.909H113.446V135ZM115.818 128.237V123.891H117.991C119.762 123.891 120.554 124.702 120.554 126.096C120.554 127.489 119.762 128.237 118.004 128.237H115.818Z" fill="black"/>
<defs>
<filter id="filter0_f_0_1" x="-40" y="-45" width="235" height="272" filterUnits="userSpaceOnUse" color-interpolation-filters="sRGB">
<feFlood flood-opacity="0" result="BackgroundImageFix"/>
<feBlend mode="normal" in="SourceGraphic" in2="BackgroundImageFix" result="shape"/>
<feGaussianBlur stdDeviation="30.5" result="effect1_foregroundBlur_0_1"/>
</filter>
</defs>
</svg>
